# xmcd
#
# Track frame offsets:
#	300
#	14096
#	24031
#	40137
#	51384
#	63082
#	78640
#
# Disc length: 1228 seconds
#
# Revision: 1
# Processed by: cddbd v1.5.2PL0 Copyright (c) Steve Scherf et al.
# Submitted via: audiograbber 1.83.01
#
DISCID=5304c807
DTITLE=Westend - Merry Christmas
DYEAR=2006
DGENRE=Rock
TTITLE0=Winterwonderland
TTITLE1=Jingle Bell Rock
TTITLE2=Colorado Christmas
TTITLE3=Santa looked a lot like daddy
TTITLE4=Rudolph, the red nosed reindeer
TTITLE5=Christmas in your arms
TTITLE6=White Christmas
EXTD=
EXTT0=
EXTT1=
EXTT2=
EXTT3=
EXTT4=
EXTT5=
EXTT6=
PLAYORDER=
